<?xml version="1.0" standalone="no"?>
<!DOCTYPE svg PUBLIC "-//W3C//DTD SVG 20010904//EN"
 "http://www.w3.org/TR/2001/REC-SVG-20010904/DTD/svg10.dtd">
<svg version="1.0" xmlns="http://www.w3.org/2000/svg"
 width="1416.000000pt" height="664.000000pt" viewBox="0 0 1416.000000 664.000000"
 preserveAspectRatio="xMidYMid meet">

<g transform="translate(0.000000,664.000000) scale(0.100000,-0.100000)"
fill="#000000" stroke="none">
<path d="M4940 4760 c-254 -25 -456 -192 -601 -495 -108 -227 -159 -451 -180
-795 -37 -594 93 -1099 357 -1389 208 -228 536 -281 814 -131 79 43 199 160
262 255 186 286 268 634 268 1143 0 402 -48 659 -169 917 -175 371 -413 528
-751 495z m275 -335 c279 -134 425 -517 425 -1115 0 -471 -94 -803 -279 -991
-117 -118 -202 -154 -361 -153 -93 0 -112 3 -165 27 -230 106 -376 365 -440
783 -21 138 -21 517 0 663 37 256 99 430 208 589 63 92 130 153 214 194 82 40
125 48 237 42 76 -3 100 -9 161 -39z"/>
<path d="M11740 4760 c-61 -7 -71 -11 -150 -49 -71 -34 -183 -146 -245 -245
-178 -287 -275 -750 -275 -1318 0 -428 54 -746 166 -972 48 -95 84 -145 149
-205 130 -118 286 -141 443 -65 83 40 197 158 249 259 52 101 95 232 119 360
23 121 26 409 6 525 -60 346 -197 551 -404 606 -189 50 -371 -46 -474 -250
-20 -42 -40 -76 -42 -76 -7 0 6 223 19 335 63 557 279 871 568 824 66 -10 153
-45 202 -79 23 -17 30 -19 34 -8 3 8 4 74 3 148 l-3 134 -33 23 c-66 44 -214
68 -332 53z m27 -1388 c47 -25 109 -86 138 -135 98 -169 128 -515 65 -760 -55
-217 -166 -337 -312 -337 -116 0 -211 80 -277 235 -163 383 -82 871 164 994
53 26 175 28 222 3z"/>
<path d="M2340 3315 l0 -1406 103 3 102 3 0 1188 c0 653 3 1187 6 1187 3 0 13
-26 23 -57 10 -32 51 -137 91 -233 100 -240 325 -780 485 -1165 73 -176 187
-448 252 -605 66 -157 122 -293 125 -303 5 -16 18 -17 137 -15 l131 3 0 1400
0 1400 -105 0 -105 0 0 -1177 c0 -647 -3 -1174 -7 -1172 -4 3 -11 19 -17 37
-5 18 -43 115 -86 217 -87 210 -262 635 -455 1105 -129 315 -154 375 -323 785
l-85 205 -136 3 -136 3 0 -1406z"/>
<path d="M6220 3315 l0 -1406 103 3 102 3 2 1160 c1 638 2 1165 3 1170 1 6 10
-28 20 -75 18 -84 48 -192 195 -700 172 -597 271 -940 351 -1220 46 -162 88
-305 94 -317 8 -19 17 -23 58 -23 48 0 49 1 60 37 18 59 121 417 152 528 29
105 102 358 175 610 129 445 296 1041 312 1114 18 82 18 65 15 -1103 l-3
-1187 103 3 103 3 0 1400 0 1400 -132 3 c-73 1 -133 0 -133 -3 0 -3 -20 -74
-44 -158 -84 -286 -97 -332 -162 -557 -36 -124 -80 -277 -99 -340 -161 -551
-264 -910 -296 -1040 -44 -174 -48 -185 -54 -179 -2 3 -20 65 -39 139 -19 74
-82 304 -141 510 -140 495 -274 966 -347 1225 -55 197 -90 317 -107 375 -8 25
-8 25 -149 28 l-142 3 0 -1406z"/>
<path d="M8550 3315 l0 -1405 478 2 477 3 0 145 0 145 -370 5 -370 5 0 485 0
485 323 3 322 2 0 150 0 150 -325 0 -325 0 2 463 3 462 347 3 348 2 5 23 c3
12 4 78 3 147 l-3 125 -457 3 -458 2 0 -1405z"/>
<path d="M9856 4704 c-9 -24 -7 -2767 2 -2782 7 -10 110 -12 483 -10 l474 3 0
145 0 145 -373 3 -372 2 2 488 3 487 321 3 322 2 6 23 c8 29 8 241 0 261 -5
14 -44 16 -330 16 l-324 0 0 465 0 465 350 0 350 0 0 150 0 150 -454 0 c-405
0 -455 -2 -460 -16z"/>
</g>
</svg>
